<svg version="1.1" id="Layer_1" xmlns="http://www.w3.org/2000/svg" xmlns:xlink="http://www.w3.org/1999/xlink" x="0px" y="0px"
	 width="100%" viewBox="0 0 740 740" enable-background="new 0 0 740 740" xml:space="preserve">
<path fill="#FFFFFF" opacity="1.000000" stroke="none" 
	d="
M356.000000,741.000000 
	C237.333328,741.000000 119.166664,741.000000 1.000000,741.000000 
	C1.000000,494.333344 1.000000,247.666672 1.000000,1.000000 
	C247.666672,1.000000 494.333344,1.000000 741.000000,1.000000 
	C741.000000,247.666672 741.000000,494.333344 741.000000,741.000000 
	C612.833313,741.000000 484.666656,741.000000 356.000000,741.000000 
M486.387665,284.015259 
	C485.923615,284.341461 485.459564,284.667694 484.252167,284.995575 
	C478.381287,287.966644 472.626770,291.205078 466.603516,293.826019 
	C461.591888,296.006805 457.595032,301.477997 450.136505,299.044525 
	C447.770752,298.960144 445.404968,298.875793 442.842987,298.131561 
	C441.556793,297.798553 440.270569,297.465515 438.116028,297.089081 
	C428.777161,295.739227 419.445923,294.333771 410.097412,293.054230 
	C399.438507,291.595306 388.744476,290.382690 378.102509,288.813477 
	C368.452393,287.390564 358.871735,285.499603 349.225037,284.050659 
	C331.723846,281.422089 314.205688,278.901062 296.676636,276.464874 
	C284.220825,274.733734 271.765015,269.908173 258.407776,276.044128 
	C251.094727,278.364655 243.673859,280.408356 236.539124,283.186737 
	C234.583893,283.948151 233.485977,286.911041 231.249603,288.973389 
	C227.838913,290.328735 224.428223,291.684082 220.593414,292.495392 
	C218.396378,293.680267 216.199341,294.865143 213.392776,296.366241 
	C211.266861,297.255707 209.140930,298.145172 206.674866,298.563507 
	C206.116898,299.051086 205.558929,299.538666 204.407837,300.336060 
	C203.340378,300.590332 202.272934,300.844604 200.391083,301.033966 
	C198.594833,302.055847 196.798599,303.077759 194.338959,304.253479 
	C192.239838,305.199188 190.140717,306.144867 187.640930,306.555634 
	C184.106110,308.400543 180.571289,310.245453 176.548843,312.615906 
	C174.467148,313.122498 172.385452,313.629089 169.489883,314.105438 
	C164.120224,316.335815 157.447220,316.011932 153.351974,322.145020 
	C152.302155,322.462433 151.252335,322.779846 149.447876,323.040985 
	C148.640091,323.715271 147.832291,324.389557 146.588333,325.616425 
	C144.103134,327.094818 141.617920,328.573181 139.015732,330.975159 
	C138.905746,336.981110 138.795761,342.987091 137.887268,348.996002 
	C131.250687,350.834961 124.314636,351.980957 118.052773,354.687012 
	C110.097733,358.124756 102.741394,362.928284 95.011574,366.919586 
	C92.877769,368.021332 90.326721,368.906921 87.979042,368.879242 
	C83.092819,368.821747 80.093109,371.336517 77.122269,374.743591 
	C73.859673,378.485229 70.087967,381.784180 66.522453,385.259979 
	C64.404785,387.324341 61.522449,388.988953 60.271717,391.479919 
	C57.450954,397.097839 56.555931,403.650574 51.651985,408.289032 
	C50.940849,408.961700 51.148766,410.792633 51.223488,412.070496 
	C51.377312,414.701050 52.016747,417.329407 51.932106,419.941650 
	C51.800209,424.012085 52.028812,427.852234 54.485168,431.362183 
	C54.659744,432.248840 54.834320,433.135468 55.001942,433.998840 
	C55.001942,433.998840 54.984062,433.982452 54.979897,434.802002 
	C55.409359,436.706116 55.583839,438.713745 56.308243,440.498108 
	C62.657097,456.136719 74.038826,467.717224 86.999992,477.923553 
	C90.411232,480.609772 94.288460,482.704193 97.991249,485.783447 
	C98.740051,486.784363 99.300621,488.049469 100.270294,488.740417 
	C104.429504,491.704071 108.519073,494.844696 112.978188,497.294312 
	C131.033508,507.212982 149.692825,516.101074 169.556976,521.463806 
	C191.073135,527.272522 212.934265,532.056641 234.884354,535.931274 
	C255.349243,539.543701 276.072327,542.038391 296.786072,543.794373 
	C315.612457,545.390320 334.575195,545.531372 353.485901,545.912476 
	C362.428650,546.092773 371.391357,545.361328 380.343140,544.996643 
	C396.084717,544.355347 411.866028,544.177185 427.554291,542.880737 
	C444.323669,541.494812 461.089935,539.570435 477.700012,536.901001 
	C493.950653,534.289246 510.048706,530.649658 526.130127,527.084167 
	C545.551208,522.778320 564.193787,516.099976 582.406555,508.086029 
	C602.684326,499.163330 621.165405,487.723206 636.212830,471.256714 
	C646.695801,459.785034 653.060974,446.448517 654.004272,430.734039 
	C654.981995,414.447662 645.494507,403.480164 634.930237,392.284790 
	C633.559875,390.493561 632.496948,388.297363 630.764893,386.982697 
	C624.032959,381.873169 617.380737,376.559082 610.163879,372.208405 
	C593.887390,362.396149 577.712830,352.536163 559.274231,346.669434 
	C545.316956,342.228546 531.461914,338.227478 516.854431,336.900421 
	C512.228455,336.480133 507.578735,335.582520 505.502319,330.333862 
	C505.237671,329.664948 503.875488,329.430176 503.010345,328.088654 
	C503.439697,323.795044 501.518921,318.893524 505.833588,315.577454 
	C509.112976,313.057068 512.408142,310.414429 516.066956,308.556061 
	C529.582581,301.691101 543.056946,294.686615 556.917175,288.574219 
	C571.666565,282.069763 586.818237,276.472687 601.827759,270.564392 
	C613.735657,265.877045 625.794250,261.558472 637.601929,256.634857 
	C649.615967,251.625183 661.698914,246.635162 673.201965,240.590424 
	C682.876831,235.506393 691.829956,229.052185 697.560608,219.133148 
	C701.624695,212.098694 696.897095,200.673019 688.456055,198.578476 
	C687.333801,196.575836 686.512695,194.310776 685.036499,192.616577 
	C679.047668,185.743652 671.908691,184.596237 662.631531,189.216492 
	C650.613647,195.201706 638.690796,201.382599 626.810486,207.637695 
	C612.877625,214.973404 599.028198,222.467529 585.153992,229.914352 
	C567.175232,239.564209 549.181091,249.185959 531.244507,258.913635 
	C518.445923,265.854767 505.731049,272.950409 492.296967,280.069397 
	C490.526733,281.374969 488.756500,282.680573 486.387665,284.015259 
z"/>
<path fill="#FCFCFC" opacity="1.000000" stroke="none" 
	d="
M503.021759,328.994263 
	C503.875488,329.430176 505.237671,329.664948 505.502319,330.333862 
	C507.578735,335.582520 512.228455,336.480133 516.854431,336.900421 
	C531.461914,338.227478 545.316956,342.228546 559.274231,346.669434 
	C577.712830,352.536163 593.887390,362.396149 610.163879,372.208405 
	C617.380737,376.559082 624.032959,381.873169 630.764893,386.982697 
	C632.496948,388.297363 633.559875,390.493561 634.646667,392.685669 
	C634.436646,394.085663 634.215393,395.233673 634.632446,396.059143 
	C636.995178,400.734924 640.388306,405.084808 641.784424,410.012085 
	C644.377930,419.165924 642.707458,428.298218 638.871216,437.339264 
	C632.591370,448.910309 624.108948,457.935608 613.588501,465.309509 
	C597.940552,476.277344 580.905273,484.363220 563.080139,490.979187 
	C536.404846,500.879974 508.932068,507.974976 480.961029,512.779785 
	C461.749603,516.079895 442.290009,518.145752 422.864990,519.934204 
	C402.579010,521.801819 382.215424,523.014221 361.858521,523.848755 
	C350.930756,524.296692 339.942719,523.429382 328.987335,523.012390 
	C313.233459,522.412720 297.454803,522.079346 281.741882,520.898132 
	C265.580719,519.683289 249.347351,518.398743 233.395676,515.678223 
	C211.716599,511.980927 189.998383,507.900787 168.813934,502.097595 
	C149.841599,496.900360 131.364929,489.660889 113.048424,482.370605 
	C96.278877,475.696045 80.806007,466.413879 68.552681,452.860138 
	C63.388241,447.147583 59.469219,440.309113 54.984070,433.982452 
	C54.984062,433.982452 55.001942,433.998840 55.002632,433.632904 
	C55.001858,432.512939 55.000397,431.758911 54.998940,431.004883 
	C52.028812,427.852234 51.800209,424.012085 51.932106,419.941650 
	C52.016747,417.329407 51.377312,414.701050 51.223488,412.070496 
	C51.148766,410.792633 50.940849,408.961700 51.651985,408.289032 
	C56.555931,403.650574 57.450954,397.097839 60.271717,391.479919 
	C61.522449,388.988953 64.404785,387.324341 66.522453,385.259979 
	C70.087967,381.784180 73.859673,378.485229 77.122269,374.743591 
	C80.093109,371.336517 83.092819,368.821747 87.979042,368.879242 
	C90.326721,368.906921 92.877769,368.021332 95.011574,366.919586 
	C102.741394,362.928284 110.097733,358.124756 118.052773,354.687012 
	C124.314636,351.980957 131.250687,350.834961 138.385834,349.455933 
	C138.899109,365.937286 138.913818,381.958740 138.696899,398.147339 
	C138.289627,398.848450 138.113968,399.382446 137.588318,399.973389 
	C136.509155,400.662354 135.585068,401.167786 135.080170,401.945374 
	C128.008774,412.836182 131.492157,421.363037 141.256165,430.342224 
	C150.517502,438.859100 162.223953,443.765991 173.993958,447.738770 
	C198.474655,456.001831 223.400894,462.531006 249.252747,465.127533 
	C265.019409,466.711182 280.673981,469.491730 296.455872,470.819672 
	C312.131165,472.138702 327.897339,472.561981 343.634033,472.913727 
	C358.104645,473.237152 372.589020,472.942566 387.374023,473.080231 
	C408.678894,484.574493 429.675110,495.912384 450.677460,507.238922 
	C453.557953,508.792328 455.974518,510.070862 459.791504,508.258850 
	C480.948151,498.215057 502.341949,488.671753 523.633179,478.910461 
	C554.155457,464.916992 584.670837,450.908386 615.160828,436.844818 
	C620.972290,434.164307 620.911621,434.032806 617.966675,427.561432 
	C617.365295,424.398438 616.747681,421.676147 616.109009,418.936829 
	C616.088013,418.919830 616.041138,418.892883 615.981079,418.570282 
	C615.198425,418.011597 614.475830,417.775513 613.398438,417.424438 
	C611.353394,416.926239 609.663330,416.543030 607.860229,415.910370 
	C607.412598,415.595337 607.077942,415.529694 606.372925,415.354309 
	C599.011230,413.099884 592.019836,410.955200 585.017822,408.447144 
	C581.676392,403.520905 579.020020,398.192352 574.880981,394.547394 
	C564.861694,385.724030 552.575378,380.944794 540.116211,376.319214 
	C525.078369,370.736298 509.468506,367.720154 493.923706,363.776428 
	C493.699005,363.338898 493.496552,363.157654 493.160400,362.576172 
	C493.132294,351.410461 493.179352,340.710358 493.526611,329.839935 
	C495.134399,329.840210 496.464355,330.246216 497.744080,330.124420 
	C499.523041,329.955048 501.264343,329.389984 503.021759,328.994263 
M55.156639,425.486877 
	C56.726337,422.769775 57.498100,420.107300 53.875706,416.378632 
	C54.128143,420.240356 54.293270,422.766418 55.156639,425.486877 
z"/>
<path fill="#F7E47F" opacity="1.000000" stroke="none" 
	d="
M138.928528,397.980164 
	C138.913818,381.958740 138.899109,365.937286 138.785095,349.454468 
	C138.795761,342.987091 138.905746,336.981110 139.504639,330.502411 
	C144.751709,330.551331 149.539703,330.884796 154.262009,331.632935 
	C164.834030,333.307800 175.347824,335.359680 185.932449,336.943207 
	C199.152039,338.920898 212.451996,340.370819 225.657211,342.433105 
	C242.624130,345.082916 259.509521,348.252411 276.470032,350.946259 
	C296.369904,354.106934 316.319244,356.956268 336.219269,360.115997 
	C337.306488,360.288635 338.137878,362.072205 338.886963,363.395264 
	C336.414124,365.436493 334.142670,367.188324 331.587524,369.087952 
	C330.513031,370.440216 329.722168,371.644684 328.556702,372.973053 
	C327.838226,376.004333 327.494354,378.911713 327.133240,382.158569 
	C327.925537,383.040680 328.735138,383.583282 329.634064,384.339844 
	C329.723419,384.553833 329.920898,384.973480 329.920532,385.362427 
	C330.821808,389.575897 331.723694,393.400208 336.949280,393.051331 
	C336.956848,393.001678 336.902130,393.085938 336.972229,393.427734 
	C339.398895,394.756531 341.755432,395.743469 344.451508,396.786743 
	C345.249420,396.856354 345.707794,396.869659 346.278137,397.192688 
	C347.548126,397.939575 348.706207,398.376678 349.918030,399.117889 
	C349.999023,399.625977 350.026306,399.830017 349.696167,400.084473 
	C349.006256,400.919556 348.305023,401.755859 348.406311,402.479858 
	C348.805145,405.329620 349.901031,408.138062 349.938995,410.972565 
	C350.131348,425.345581 350.073395,439.721954 349.833435,454.352417 
	C335.906219,452.333435 322.249359,450.055481 308.590973,447.786804 
	C303.394989,446.923737 298.195496,446.082031 292.658661,445.181946 
	C291.863647,445.129364 291.407593,445.125458 290.698059,444.823730 
	C281.675354,442.979858 272.895935,441.489136 264.138916,439.876526 
	C245.139267,436.377716 226.159683,432.769348 207.152420,429.312714 
	C202.129807,428.399292 197.036377,427.875214 191.642853,427.130798 
	C190.863678,427.081268 190.417099,427.073242 189.719910,426.781952 
	C173.304428,423.643616 157.139587,420.788513 140.941467,417.624329 
	C140.295776,416.867310 139.683365,416.419403 139.050110,415.598572 
	C139.038437,414.479095 139.047592,413.732452 139.342499,412.689209 
	C139.395020,407.588470 139.161774,402.784302 138.928528,397.980164 
z"/>
<path fill="#F9EAA0" opacity="1.000000" stroke="none" 
	d="
M339.088348,363.105896 
	C338.137878,362.072205 337.306488,360.288635 336.219269,360.115997 
	C316.319244,356.956268 296.369904,354.106934 276.470032,350.946259 
	C259.509521,348.252411 242.624130,345.082916 225.657211,342.433105 
	C212.451996,340.370819 199.152039,338.920898 185.932449,336.943207 
	C175.347824,335.359680 164.834030,333.307800 154.262009,331.632935 
	C149.539703,330.884796 144.751709,330.551331 139.563126,330.040619 
	C141.617920,328.573181 144.103134,327.094818 147.130890,325.306458 
	C148.516479,324.363403 149.359497,323.730347 150.202515,323.097290 
	C151.252335,322.779846 152.302155,322.462433 154.043518,322.045776 
	C156.728592,321.171204 158.808807,320.563019 160.696335,319.583466 
	C163.961761,317.888855 167.107697,315.963989 170.303757,314.135681 
	C172.385452,313.629089 174.467148,313.122498 177.157196,312.296509 
	C181.190887,310.348297 184.616241,308.719421 188.041595,307.090546 
	C190.140717,306.144867 192.239838,305.199188 195.028381,304.139893 
	C197.547012,303.050507 199.376251,302.074677 201.205475,301.098846 
	C202.272934,300.844604 203.340378,300.590332 205.003311,300.165955 
	C206.070862,299.675415 206.542938,299.355042 207.015015,299.034637 
	C209.140930,298.145172 211.266861,297.255707 214.058228,296.171600 
	C216.821640,294.997772 218.919586,294.018616 221.017532,293.039429 
	C224.428223,291.684082 227.838913,290.328735 231.957016,288.830933 
	C235.659882,287.346497 238.684052,286.064667 241.644699,284.649811 
	C247.522644,281.840942 253.365555,278.958771 259.222931,276.106842 
	C271.765015,269.908173 284.220825,274.733734 296.676636,276.464874 
	C314.205688,278.901062 331.723846,281.422089 349.225037,284.050659 
	C358.871735,285.499603 368.452393,287.390564 378.102509,288.813477 
	C388.744476,290.382690 399.438507,291.595306 410.097412,293.054230 
	C419.445923,294.333771 428.777161,295.739227 438.631958,297.451050 
	C440.445007,298.139160 441.742126,298.465302 443.039215,298.791443 
	C445.404968,298.875793 447.770752,298.960144 450.577454,299.428467 
	C449.867798,301.289032 448.998383,303.212280 447.508606,304.150330 
	C444.298523,306.171692 440.722565,307.600403 437.378815,309.422943 
	C419.229889,319.315186 401.054932,329.161926 383.005554,339.233307 
	C377.797424,342.139435 372.975250,345.737366 367.750092,349.026550 
	C367.524048,349.035004 367.074005,349.081482 366.701538,349.088867 
	C360.346405,352.108490 354.308350,355.018402 348.420807,358.206238 
	C346.986389,358.982941 346.046387,360.672699 344.572845,361.972473 
	C343.535553,362.361847 342.804474,362.721466 341.698914,363.059570 
	C340.579071,363.060699 339.833710,363.083282 339.088348,363.105896 
z"/>
<path fill="#E1E1E1" opacity="1.000000" stroke="none" 
	d="
M54.981987,434.392212 
	C59.469219,440.309113 63.388241,447.147583 68.552681,452.860138 
	C80.806007,466.413879 96.278877,475.696045 113.048424,482.370605 
	C131.364929,489.660889 149.841599,496.900360 168.813934,502.097595 
	C189.998383,507.900787 211.716599,511.980927 233.395676,515.678223 
	C249.347351,518.398743 265.580719,519.683289 281.741882,520.898132 
	C297.454803,522.079346 313.233459,522.412720 328.987335,523.012390 
	C339.942719,523.429382 350.930756,524.296692 361.858521,523.848755 
	C382.215424,523.014221 402.579010,521.801819 422.864990,519.934204 
	C442.290009,518.145752 461.749603,516.079895 480.961029,512.779785 
	C508.932068,507.974976 536.404846,500.879974 563.080139,490.979187 
	C580.905273,484.363220 597.940552,476.277344 613.588501,465.309509 
	C624.108948,457.935608 632.591370,448.910309 639.141113,437.556091 
	C636.573853,443.588989 634.366577,450.267151 630.470520,455.743866 
	C621.730957,468.029083 610.268860,477.863739 597.229614,485.161102 
	C583.552246,492.815521 569.332520,499.797424 554.701599,505.371857 
	C538.526489,511.534607 521.863953,516.922424 504.963501,520.549988 
	C483.518555,525.153015 461.680573,528.114380 439.899261,530.902222 
	C421.544006,533.251526 403.050323,535.324341 384.576965,535.753052 
	C358.489044,536.358337 332.355804,535.614197 306.256805,534.902222 
	C291.209137,534.491638 276.143158,533.459900 261.172546,531.881470 
	C246.071442,530.289429 230.959244,528.280396 216.068039,525.354065 
	C198.104050,521.823792 180.259171,517.544312 162.559814,512.846558 
	C139.709106,506.781494 118.037270,497.702271 97.951706,485.070374 
	C94.288460,482.704193 90.411232,480.609772 86.999992,477.923553 
	C74.038826,467.717224 62.657097,456.136719 56.308243,440.498108 
	C55.583839,438.713745 55.409359,436.706116 54.981987,434.392212 
z"/>
<path fill="#EBEAEA" opacity="1.000000" stroke="none" 
	d="
M492.978882,279.977112 
	C505.731049,272.950409 518.445923,265.854767 531.244507,258.913635 
	C549.181091,249.185959 567.175232,239.564209 585.153992,229.914352 
	C599.028198,222.467529 612.877625,214.973404 626.810486,207.637695 
	C638.690796,201.382599 650.613647,195.201706 662.631531,189.216492 
	C671.908691,184.596237 679.047668,185.743652 685.036499,192.616577 
	C686.512695,194.310776 687.333801,196.575836 688.729370,199.219971 
	C688.167725,203.528320 688.262207,207.831635 686.286194,210.717117 
	C683.092529,215.380768 679.166260,220.144867 674.430359,223.029037 
	C663.462524,229.708511 652.003784,235.662476 640.407043,241.205582 
	C629.353088,246.489288 617.995667,251.202179 606.549438,255.585983 
	C589.731934,262.026947 572.458862,267.335693 555.862061,274.279175 
	C540.765930,280.594788 526.348328,288.521820 511.555115,295.578094 
	C507.174042,297.667816 502.533661,299.213806 498.006348,300.611450 
	C497.992676,299.154449 497.984802,298.094910 498.232208,296.821411 
	C498.356720,290.993408 494.726715,287.458008 491.038574,283.660156 
	C491.717560,282.215363 492.348206,281.096252 492.978882,279.977112 
z"/>
<path fill="#F2F2F2" opacity="1.000000" stroke="none" 
	d="
M97.971474,485.426910 
	C118.037270,497.702271 139.709106,506.781494 162.559814,512.846558 
	C180.259171,517.544312 198.104050,521.823792 216.068039,525.354065 
	C230.959244,528.280396 246.071442,530.289429 261.172546,531.881470 
	C276.143158,533.459900 291.209137,534.491638 306.256805,534.902222 
	C332.355804,535.614197 358.489044,536.358337 384.576965,535.753052 
	C403.050323,535.324341 421.544006,533.251526 439.899261,530.902222 
	C461.680573,528.114380 483.518555,525.153015 504.963501,520.549988 
	C521.863953,516.922424 538.526489,511.534607 554.701599,505.371857 
	C569.332520,499.797424 583.552246,492.815521 597.229614,485.161102 
	C610.268860,477.863739 621.730957,468.029083 630.470520,455.743866 
	C634.366577,450.267151 636.573853,443.588989 639.277710,437.239319 
	C642.707458,428.298218 644.377930,419.165924 641.784424,410.012085 
	C640.388306,405.084808 636.995178,400.734924 634.632446,396.059143 
	C634.215393,395.233673 634.436646,394.085663 634.682739,393.040833 
	C645.494507,403.480164 654.981995,414.447662 654.004272,430.734039 
	C653.060974,446.448517 646.695801,459.785034 636.212830,471.256714 
	C621.165405,487.723206 602.684326,499.163330 582.406555,508.086029 
	C564.193787,516.099976 545.551208,522.778320 526.130127,527.084167 
	C510.048706,530.649658 493.950653,534.289246 477.700012,536.901001 
	C461.089935,539.570435 444.323669,541.494812 427.554291,542.880737 
	C411.866028,544.177185 396.084717,544.355347 380.343140,544.996643 
	C371.391357,545.361328 362.428650,546.092773 353.485901,545.912476 
	C334.575195,545.531372 315.612457,545.390320 296.786072,543.794373 
	C276.072327,542.038391 255.349243,539.543701 234.884354,535.931274 
	C212.934265,532.056641 191.073135,527.272522 169.556976,521.463806 
	C149.692825,516.101074 131.033508,507.212982 112.978188,497.294312 
	C108.519073,494.844696 104.429504,491.704071 100.270294,488.740417 
	C99.300621,488.049469 98.740051,486.784363 97.971474,485.426910 
z"/>
<path fill="#F3F2F1" opacity="1.000000" stroke="none" 
	d="
M498.012085,301.008942 
	C502.533661,299.213806 507.174042,297.667816 511.555115,295.578094 
	C526.348328,288.521820 540.765930,280.594788 555.862061,274.279175 
	C572.458862,267.335693 589.731934,262.026947 606.549438,255.585983 
	C617.995667,251.202179 629.353088,246.489288 640.407043,241.205582 
	C652.003784,235.662476 663.462524,229.708511 674.430359,223.029037 
	C679.166260,220.144867 683.092529,215.380768 686.286194,210.717117 
	C688.262207,207.831635 688.167725,203.528320 689.003784,199.426819 
	C696.897095,200.673019 701.624695,212.098694 697.560608,219.133148 
	C691.829956,229.052185 682.876831,235.506393 673.201965,240.590424 
	C661.698914,246.635162 649.615967,251.625183 637.601929,256.634857 
	C625.794250,261.558472 613.735657,265.877045 601.827759,270.564392 
	C586.818237,276.472687 571.666565,282.069763 556.917175,288.574219 
	C543.056946,294.686615 529.582581,301.691101 516.066956,308.556061 
	C512.408142,310.414429 509.112976,313.057068 505.833588,315.577454 
	C501.518921,318.893524 503.439697,323.795044 503.016052,328.541473 
	C501.264343,329.389984 499.523041,329.955048 497.744080,330.124420 
	C496.464355,330.246216 495.134399,329.840210 493.438416,329.379639 
	C492.941040,324.390289 492.832123,319.690948 492.814270,314.567688 
	C492.391235,311.831238 494.837952,308.148712 490.032166,307.512909 
	C491.052185,306.455200 492.029358,305.726379 493.310486,305.122650 
	C497.652924,306.503784 497.078247,302.973846 498.012085,301.008942 
z"/>
<path fill="#E1E1E1" opacity="1.000000" stroke="none" 
	d="
M498.006348,300.611450 
	C497.078247,302.973846 497.652924,306.503784 493.304382,304.750305 
	C490.092712,298.409302 487.191101,292.565735 484.247345,286.637238 
	C472.441315,293.048004 461.382904,299.018860 450.356323,305.047882 
	C431.883636,315.148315 413.482666,325.381256 394.947998,335.366333 
	C386.079651,340.143890 376.974182,344.481323 367.976135,349.018066 
	C372.975250,345.737366 377.797424,342.139435 383.005554,339.233307 
	C401.054932,329.161926 419.229889,319.315186 437.378815,309.422943 
	C440.722565,307.600403 444.298523,306.171692 447.508606,304.150330 
	C448.998383,303.212280 449.867798,301.289032 451.021759,299.447113 
	C457.595032,301.477997 461.591888,296.006805 466.603516,293.826019 
	C472.626770,291.205078 478.381287,287.966644 484.625793,284.997711 
	C484.999390,284.999847 484.992126,284.995392 485.222839,285.273010 
	C492.423004,286.331085 495.498749,291.357422 497.976929,297.035400 
	C497.984802,298.094910 497.992676,299.154449 498.006348,300.611450 
z"/>
<path fill="#FCFCFC" opacity="1.000000" stroke="none" 
	d="
M258.815369,276.075500 
	C253.365555,278.958771 247.522644,281.840942 241.644699,284.649811 
	C238.684052,286.064667 235.659882,287.346497 232.329529,288.776062 
	C233.485977,286.911041 234.583893,283.948151 236.539124,283.186737 
	C243.673859,280.408356 251.094727,278.364655 258.815369,276.075500 
z"/>
<path fill="#FCFCFC" opacity="1.000000" stroke="none" 
	d="
M169.896820,314.120575 
	C167.107697,315.963989 163.961761,317.888855 160.696335,319.583466 
	C158.808807,320.563019 156.728592,321.171204 154.367447,321.977966 
	C157.447220,316.011932 164.120224,316.335815 169.896820,314.120575 
z"/>
<path fill="#FCFCFC" opacity="1.000000" stroke="none" 
	d="
M187.841263,306.823090 
	C184.616241,308.719421 181.190887,310.348297 177.401001,312.033752 
	C180.571289,310.245453 184.106110,308.400543 187.841263,306.823090 
z"/>
<path fill="#E1E1E1" opacity="1.000000" stroke="none" 
	d="
M492.637939,280.023254 
	C492.348206,281.096252 491.717560,282.215363 490.639587,283.665253 
	C489.127350,283.996124 488.062439,283.996216 486.997955,283.997467 
	C486.998413,283.998596 486.986267,283.986145 486.986267,283.986145 
	C488.756500,282.680573 490.526733,281.374969 492.637939,280.023254 
z"/>
<path fill="#FCFCFC" opacity="1.000000" stroke="none" 
	d="
M220.805481,292.767395 
	C218.919586,294.018616 216.821640,294.997772 214.363007,296.013489 
	C216.199341,294.865143 218.396378,293.680267 220.805481,292.767395 
z"/>
<path fill="#FCFCFC" opacity="1.000000" stroke="none" 
	d="
M200.798279,301.066406 
	C199.376251,302.074677 197.547012,303.050507 195.360077,304.062988 
	C196.798599,303.077759 198.594833,302.055847 200.798279,301.066406 
z"/>
<path fill="#E1E1E1" opacity="1.000000" stroke="none" 
	d="
M442.941101,298.461487 
	C441.742126,298.465302 440.445007,298.139160 439.066162,297.472778 
	C440.270569,297.465515 441.556793,297.798553 442.941101,298.461487 
z"/>
<path fill="#FCFCFC" opacity="1.000000" stroke="none" 
	d="
M149.825195,323.069153 
	C149.359497,323.730347 148.516479,324.363403 147.348969,325.030151 
	C147.832291,324.389557 148.640091,323.715271 149.825195,323.069153 
z"/>
<path fill="#FCFCFC" opacity="1.000000" stroke="none" 
	d="
M206.844940,298.799072 
	C206.542938,299.355042 206.070862,299.675415 205.299866,300.011047 
	C205.558929,299.538666 206.116898,299.051086 206.844940,298.799072 
z"/>
<path fill="#E1E1E1" opacity="1.000000" stroke="none" 
	d="
M54.742054,431.183533 
	C55.000397,431.758911 55.001858,432.512939 55.006111,433.644531 
	C54.834320,433.135468 54.659744,432.248840 54.742054,431.183533 
z"/>
<path fill="#E1E1E1" opacity="1.000000" stroke="none" 
	d="
M484.997467,284.996887 
	C485.459564,284.667694 485.923615,284.341461 486.686951,284.000702 
	C486.986267,283.986145 486.998413,283.998596 486.833313,284.246002 
	C486.109528,284.660736 485.550842,284.828064 484.992126,284.995392 
	C484.992126,284.995392 484.999390,284.999847 484.997467,284.996887 
z"/>
<path fill="#E5D05E" opacity="1.000000" stroke="none" 
	d="
M492.723206,314.991577 
	C492.832123,319.690948 492.941040,324.390289 493.138184,329.549927 
	C493.179352,340.710358 493.132294,351.410461 493.090057,362.812439 
	C493.094910,363.514282 493.179230,364.000519 493.080170,364.267883 
	C492.920166,364.715302 492.859253,364.895355 492.611450,365.220306 
	C492.557404,365.889343 492.690186,366.413483 492.887512,367.406189 
	C492.907135,377.941345 492.862213,388.007996 492.606201,398.256317 
	C492.521942,399.259186 492.648712,400.080353 492.846313,401.307800 
	C493.012939,402.809021 493.108795,403.903961 492.812225,405.004333 
	C491.283417,405.677521 490.147034,406.345245 488.581787,407.016754 
	C486.201447,407.295837 484.146423,407.268250 482.315063,407.894623 
	C468.159637,412.736176 454.022888,417.634979 439.927155,422.647705 
	C412.498566,432.401947 385.105804,442.256958 357.680603,452.020844 
	C355.220245,452.896790 352.632019,453.413544 350.103149,454.097137 
	C350.073395,439.721954 350.131348,425.345581 349.938995,410.972565 
	C349.901031,408.138062 348.805145,405.329620 348.406311,402.479858 
	C348.305023,401.755859 349.006256,400.919556 349.970337,400.348999 
	C350.724670,403.996582 352.256226,405.715485 355.891144,405.006073 
	C360.237640,404.157867 364.634644,403.530396 368.935791,402.498840 
	C372.907166,401.546387 376.818726,400.297791 380.689453,398.982056 
	C388.729584,396.249054 396.770477,393.505432 404.716278,390.514435 
	C407.790192,389.357330 410.531921,387.346069 413.554993,386.020416 
	C423.652069,381.592682 433.154755,376.125214 442.137024,369.771515 
	C444.918884,367.803741 447.665710,365.611176 449.874786,363.044861 
	C454.639709,357.509399 461.327698,353.069763 461.354614,344.554840 
	C461.355499,344.274414 461.653992,343.966888 461.868317,343.719116 
	C468.417511,336.148315 474.671356,328.286285 481.675842,321.162506 
	C484.514343,318.275665 488.991638,317.000244 492.723206,314.991577 
z"/>
<path fill="#E4E3E2" opacity="1.000000" stroke="none" 
	d="
M139.056763,412.985840 
	C139.047592,413.732452 139.038437,414.479095 139.029724,415.884888 
	C139.282227,417.029266 139.534271,417.514404 139.809296,418.354553 
	C140.513504,419.884033 141.194733,421.058563 141.893127,422.610962 
	C142.559799,426.020172 143.432632,428.442505 147.290939,429.067230 
	C159.206558,430.996582 171.070724,433.255554 182.931107,435.511383 
	C206.166107,439.930756 229.371796,444.504639 252.613953,448.885468 
	C280.897034,454.216431 309.219666,459.338287 337.493195,464.718628 
	C345.358673,466.215393 352.814819,467.117920 360.585388,463.464661 
	C368.057556,459.951691 376.140717,457.738342 384.199524,454.971649 
	C384.443634,454.989319 384.932953,454.978394 384.959351,455.411011 
	C385.701324,459.513947 386.416931,463.184235 387.089478,467.279602 
	C387.065948,469.106079 387.085480,470.507507 387.086700,472.161438 
	C387.068054,472.582672 387.067688,472.751434 387.067352,472.920227 
	C372.589020,472.942566 358.104645,473.237152 343.634033,472.913727 
	C327.897339,472.561981 312.131165,472.138702 296.455872,470.819672 
	C280.673981,469.491730 265.019409,466.711182 249.252747,465.127533 
	C223.400894,462.531006 198.474655,456.001831 173.993958,447.738770 
	C162.223953,443.765991 150.517502,438.859100 141.256165,430.342224 
	C131.492157,421.363037 128.008774,412.836182 135.080170,401.945374 
	C135.585068,401.167786 136.509155,400.662354 137.627289,400.442566 
	C138.363083,404.898438 138.709915,408.942139 139.056763,412.985840 
z"/>
<path fill="#E4E3E2" opacity="1.000000" stroke="none" 
	d="
M492.817291,398.074615 
	C492.862213,388.007996 492.907135,377.941345 492.950592,367.097412 
	C492.898865,365.905243 492.848572,365.490326 492.798309,365.075439 
	C492.859253,364.895355 492.920166,364.715302 493.286072,364.261841 
	C493.591064,363.988464 494.004456,363.967377 494.004456,363.967377 
	C509.468506,367.720154 525.078369,370.736298 540.116211,376.319214 
	C552.575378,380.944794 564.861694,385.724030 574.880981,394.547394 
	C579.020020,398.192352 581.676392,403.520905 584.632751,408.492004 
	C579.837830,407.647522 575.417297,406.394806 570.682312,405.047363 
	C569.932434,404.928986 569.496948,404.905396 568.815491,404.626343 
	C563.046936,402.639526 557.524292,400.908203 551.682373,399.088074 
	C550.923218,398.971405 550.483398,398.943512 549.796631,398.653625 
	C546.700073,397.599457 543.850464,396.807312 540.648132,395.927917 
	C538.889038,395.500427 537.482666,395.160187 535.830139,394.555786 
	C532.268005,393.833435 528.515503,392.145569 525.715149,393.139740 
	C515.964294,396.601471 506.543243,400.992157 496.722900,405.006073 
	C496.267059,405.005310 496.085175,405.028168 495.564545,405.029358 
	C494.552094,405.004700 493.878357,405.001770 493.204651,404.998871 
	C493.108795,403.903961 493.012939,402.809021 492.929626,400.960754 
	C492.900574,399.496460 492.858948,398.785522 492.817291,398.074615 
z"/>
<path fill="#F9EAA0" opacity="1.000000" stroke="none" 
	d="
M616.130005,418.953857 
	C616.747681,421.676147 617.365295,424.398438 617.612183,427.594360 
	C611.255432,430.836639 605.253113,433.570862 599.286499,436.380859 
	C586.377014,442.460632 573.511414,448.634216 560.581482,454.669983 
	C537.604980,465.395386 514.588440,476.034882 491.599762,486.734375 
	C480.487610,491.906250 469.432709,497.203857 458.250946,502.219452 
	C457.190155,502.695343 455.406433,501.559570 453.971130,500.774017 
	C453.516357,498.750519 452.937500,497.145691 452.630402,495.490387 
	C452.486603,494.715271 452.867432,493.842804 453.224609,492.907776 
	C453.715393,492.618408 453.909973,492.371185 454.351654,492.018951 
	C455.794189,491.332703 456.907623,490.686951 458.340607,490.014648 
	C459.439728,489.648407 460.219299,489.308716 461.345520,488.945129 
	C463.475342,487.973663 465.258453,487.026093 467.358398,486.043701 
	C468.450165,485.670624 469.225067,485.332306 470.338684,484.873718 
	C477.529175,481.773468 484.419586,478.878632 491.223602,475.793304 
	C501.186340,471.275696 511.087250,466.621674 521.343018,461.998169 
	C522.796753,461.352173 523.921997,460.733704 525.338989,460.072327 
	C526.100220,459.711792 526.569702,459.394196 527.331787,459.054138 
	C528.102295,458.734924 528.580200,458.438171 529.427490,458.102173 
	C532.202026,457.049683 534.607117,456.036407 537.357056,454.986389 
	C539.476746,453.989563 541.251709,453.029449 543.391357,452.015167 
	C547.560059,450.002045 551.364014,448.043121 555.473877,446.089233 
	C556.186462,446.066040 556.593262,446.037781 557.366577,445.974121 
	C561.833679,443.981018 565.934326,442.023285 570.352783,440.032104 
	C571.446899,439.658081 572.223206,439.317474 573.267822,438.878021 
	C574.054138,438.238464 574.572144,437.697754 575.439819,437.105530 
	C577.526428,436.373535 579.263184,435.693085 581.361328,434.977356 
	C587.634644,432.388306 593.603210,429.956360 599.442444,427.245758 
	C605.074402,424.631409 610.572876,421.729431 616.130005,418.953857 
z"/>
<path fill="#CECDC8" opacity="1.000000" stroke="none" 
	d="
M453.958344,501.171997 
	C455.406433,501.559570 457.190155,502.695343 458.250946,502.219452 
	C469.432709,497.203857 480.487610,491.906250 491.599762,486.734375 
	C514.588440,476.034882 537.604980,465.395386 560.581482,454.669983 
	C573.511414,448.634216 586.377014,442.460632 599.286499,436.380859 
	C605.253113,433.570862 611.255432,430.836639 617.595947,428.035095 
	C620.911621,434.032806 620.972290,434.164307 615.160828,436.844818 
	C584.670837,450.908386 554.155457,464.916992 523.633179,478.910461 
	C502.341949,488.671753 480.948151,498.215057 459.791504,508.258850 
	C455.974518,510.070862 453.557953,508.792328 450.677460,507.238922 
	C429.675110,495.912384 408.678894,484.574493 387.374023,473.080200 
	C387.067688,472.751434 387.068054,472.582672 387.529419,472.192200 
	C391.001556,471.960480 394.012604,471.950439 397.381042,471.992004 
	C411.561310,479.543091 425.337189,487.131317 439.233032,494.493103 
	C443.986725,497.011536 449.041260,498.962036 453.958344,501.171997 
z"/>
<path fill="#E5D05E" opacity="1.000000" stroke="none" 
	d="
M616.109009,418.936829 
	C610.572876,421.729431 605.074402,424.631409 599.442444,427.245758 
	C593.603210,429.956360 587.634644,432.388306 581.397705,434.615021 
	C584.353455,426.689270 594.720886,421.657349 605.953430,422.596741 
	C605.674683,421.254120 605.744263,419.292389 605.143555,419.059540 
	C600.366699,417.207581 595.472778,415.652435 590.593018,414.073212 
	C588.266296,413.320221 585.868347,412.786041 583.546143,412.020752 
	C580.802612,411.116608 577.906250,408.913574 575.433350,409.340942 
	C571.136658,410.083374 570.886108,408.210693 570.996704,405.142090 
	C575.417297,406.394806 579.837830,407.647522 584.643433,408.855377 
	C592.019836,410.955200 599.011230,413.099884 606.436035,415.537384 
	C607.237427,415.940063 607.605347,416.049927 607.973206,416.159790 
	C609.663330,416.543030 611.353394,416.926239 613.528137,417.677673 
	C614.688904,418.328247 615.364990,418.610565 616.041138,418.892883 
	C616.041138,418.892883 616.088013,418.919830 616.109009,418.936829 
z"/>
<path fill="#F9EAA0" opacity="1.000000" stroke="none" 
	d="
M139.342514,412.689209 
	C138.709915,408.942139 138.363083,404.898438 137.977280,400.385559 
	C138.113968,399.382446 138.289627,398.848450 138.696899,398.147339 
	C139.161774,402.784302 139.395020,407.588470 139.342514,412.689209 
z"/>
<path fill="#FFFFFF" opacity="1.000000" stroke="none" 
	d="
M54.807518,425.389679 
	C54.293270,422.766418 54.128143,420.240356 53.875706,416.378632 
	C57.498100,420.107300 56.726337,422.769775 54.807518,425.389679 
z"/>
<path fill="#F9EAA0" opacity="1.000000" stroke="none" 
	d="
M615.981079,418.570282 
	C615.364990,418.610565 614.688904,418.328247 613.883057,417.792664 
	C614.475830,417.775513 615.198425,418.011597 615.981079,418.570282 
z"/>
<path fill="#F9EAA0" opacity="1.000000" stroke="none" 
	d="
M607.860229,415.910370 
	C607.605347,416.049927 607.237427,415.940063 606.806396,415.647125 
	C607.077942,415.529694 607.412598,415.595337 607.860229,415.910370 
z"/>
<path fill="#F3F2F1" opacity="1.000000" stroke="none" 
	d="
M493.923706,363.776428 
	C494.004456,363.967377 493.591064,363.988464 493.385132,363.994507 
	C493.179230,364.000519 493.094910,363.514282 493.165283,363.278015 
	C493.496552,363.157654 493.699005,363.338898 493.923706,363.776428 
z"/>
<path fill="#F9F7F7" opacity="1.000000" stroke="none" 
	d="
M367.750092,349.026550 
	C376.974182,344.481323 386.079651,340.143890 394.947998,335.366333 
	C413.482666,325.381256 431.883636,315.148315 450.356323,305.047882 
	C461.382904,299.018860 472.441315,293.048004 484.247345,286.637238 
	C487.191101,292.565735 490.092712,298.409302 493.000427,304.625214 
	C492.029358,305.726379 491.052185,306.455200 489.881409,307.634338 
	C489.687775,308.084686 489.304230,308.130310 488.907501,308.090942 
	C487.362671,309.089996 486.214569,310.128418 484.893005,311.455139 
	C478.364044,317.402100 471.143494,322.356354 465.838867,328.870697 
	C455.787201,341.214813 445.695190,353.361084 432.507599,362.944275 
	C431.435455,363.616272 430.699249,364.270538 429.823792,365.226288 
	C428.055878,366.654724 426.427216,367.781677 424.448120,368.933533 
	C422.747192,369.994843 421.396729,371.031281 420.018738,372.042847 
	C419.991211,372.017975 420.057159,372.049561 419.695251,372.028503 
	C418.561798,372.684174 417.790253,373.360901 416.815063,374.311523 
	C412.866608,376.458862 409.121796,378.332336 404.986755,380.161133 
	C402.052368,381.679749 399.508270,383.243042 396.638733,384.925323 
	C394.994415,385.429718 393.675537,385.815094 391.988159,386.153809 
	C390.387360,386.976166 389.155090,387.845215 387.613464,388.826752 
	C386.653503,389.025787 386.002899,389.112366 384.935852,389.136169 
	C380.932068,390.110474 377.305176,391.031555 373.774414,392.234802 
	C372.074097,392.814301 370.555023,393.925720 368.635681,394.876282 
	C367.881378,394.970825 367.445282,394.985321 366.774170,394.721405 
	C363.358704,395.269806 360.178345,396.096649 356.624512,396.958252 
	C355.502167,396.985352 354.753235,396.977631 353.752899,396.691406 
	C351.056396,396.569580 348.611298,396.726257 346.166199,396.882935 
	C345.707794,396.869659 345.249420,396.856354 344.349487,396.469604 
	C341.572662,395.092712 339.237396,394.089325 336.902130,393.085938 
	C336.902130,393.085938 336.956848,393.001678 336.834534,392.732483 
	C334.448425,389.966705 332.184662,387.470093 329.920898,384.973480 
	C329.920898,384.973480 329.723419,384.553833 329.758972,384.025696 
	C329.812256,383.054779 329.830048,382.612000 329.848145,381.755493 
	C329.542755,378.510864 329.237030,375.679993 328.931335,372.849152 
	C329.722168,371.644684 330.513031,370.440216 331.961853,369.079742 
	C335.770996,366.976166 338.922180,365.028595 342.073364,363.081055 
	C342.804474,362.721466 343.535553,362.361847 344.946106,361.959473 
	C349.216492,360.039551 352.903717,358.322937 356.371979,356.241486 
	C360.047760,354.035492 363.515442,351.482788 367.074005,349.081482 
	C367.074005,349.081482 367.524048,349.035004 367.750092,349.026550 
z"/>
<path fill="#B8B8B7" opacity="1.000000" stroke="none" 
	d="
M383.955444,454.953979 
	C376.140717,457.738342 368.057556,459.951691 360.585388,463.464661 
	C352.814819,467.117920 345.358673,466.215393 337.493195,464.718628 
	C309.219666,459.338287 280.897034,454.216431 252.613953,448.885468 
	C229.371796,444.504639 206.166107,439.930756 182.931107,435.511383 
	C171.070724,433.255554 159.206558,430.996582 147.290939,429.067230 
	C143.432632,428.442505 142.559799,426.020172 141.978271,422.227966 
	C142.814285,421.064209 143.663116,420.205902 144.338440,420.325684 
	C157.689484,422.693848 171.010330,425.233032 184.367447,427.564911 
	C186.151688,427.876404 188.098831,427.254761 189.970535,427.065247 
	C190.417099,427.073242 190.863678,427.081268 191.711212,427.497467 
	C195.106415,428.780426 198.053772,429.897034 201.102997,430.488159 
	C214.374634,433.060913 227.672104,435.501556 240.967484,437.950409 
	C255.220718,440.575714 269.467896,443.240082 283.754395,445.672028 
	C286.055511,446.063721 288.547668,445.333313 290.951508,445.121582 
	C291.407593,445.125458 291.863647,445.129364 292.738007,445.523254 
	C294.749817,446.608215 296.282074,447.610748 297.947937,447.942841 
	C303.934692,449.136261 309.966766,450.102112 315.981354,451.155975 
	C325.238434,452.777924 334.562012,454.101196 343.726074,456.141144 
	C348.920685,457.297485 353.396118,456.527161 358.183655,454.550720 
	C365.743195,451.429840 373.555725,448.924652 381.244720,446.113831 
	C394.718231,441.188324 408.168457,436.198700 421.658569,431.319336 
	C423.454559,430.669800 425.426727,430.507355 427.317291,430.119354 
	C427.009125,431.707642 426.433380,432.289825 425.736206,432.572876 
	C412.930023,437.772064 400.085754,442.878418 387.309692,448.150085 
	C384.434906,449.336304 381.838074,451.098053 383.955444,454.953979 
z"/>
<path fill="#DCC75F" opacity="1.000000" stroke="none" 
	d="
M489.304230,308.130310 
	C489.304230,308.130310 489.687775,308.084686 489.838562,307.963257 
	C494.837952,308.148712 492.391235,311.831238 492.814270,314.567688 
	C488.991638,317.000244 484.514343,318.275665 481.675842,321.162506 
	C474.671356,328.286285 468.417511,336.148315 461.868317,343.719116 
	C461.653992,343.966888 461.355499,344.274414 461.354614,344.554840 
	C461.327698,353.069763 454.639709,357.509399 449.874786,363.044861 
	C447.665710,365.611176 444.918884,367.803741 442.137024,369.771515 
	C433.154755,376.125214 423.652069,381.592682 413.554993,386.020416 
	C410.531921,387.346069 407.790192,389.357330 404.716278,390.514435 
	C396.770477,393.505432 388.729584,396.249054 380.689453,398.982056 
	C376.818726,400.297791 372.907166,401.546387 368.935791,402.498840 
	C364.634644,403.530396 360.237640,404.157867 355.891144,405.006073 
	C352.256226,405.715485 350.724670,403.996582 350.327759,400.298584 
	C350.026306,399.830017 349.999023,399.625977 350.176697,398.898926 
	C351.589172,397.907257 352.796722,397.438599 354.004303,396.969940 
	C354.753235,396.977631 355.502167,396.985352 356.810944,397.269897 
	C360.583588,396.697754 363.796417,395.848785 367.009216,394.999847 
	C367.445282,394.985321 367.881378,394.970825 369.027191,394.949768 
	C374.942047,393.028412 380.147186,391.113647 385.352295,389.198914 
	C386.002899,389.112366 386.653503,389.025787 387.958984,388.892517 
	C389.861481,387.964020 391.109100,387.082245 392.356689,386.200500 
	C393.675537,385.815094 394.994415,385.429718 396.998535,384.966003 
	C400.248230,383.327057 402.812622,381.766449 405.377014,380.205841 
	C409.121796,378.332336 412.866608,376.458862 417.136810,374.291748 
	C418.460510,373.348633 419.258850,372.699097 420.057159,372.049561 
	C420.057159,372.049561 419.991211,372.017975 420.356171,372.015259 
	C422.080261,370.977905 423.439423,369.943268 424.798553,368.908630 
	C426.427216,367.781677 428.055878,366.654724 430.147217,365.236023 
	C431.354401,364.271667 432.098969,363.599091 432.843536,362.926544 
	C445.695190,353.361084 455.787201,341.214813 465.838867,328.870697 
	C471.143494,322.356354 478.364044,317.402100 485.222656,311.405701 
	C486.918579,310.088745 488.111389,309.109528 489.304230,308.130310 
z"/>
<path fill="#C3BDA1" opacity="1.000000" stroke="none" 
	d="
M384.199524,454.971680 
	C381.838074,451.098053 384.434906,449.336304 387.309692,448.150085 
	C400.085754,442.878418 412.930023,437.772064 425.736206,432.572876 
	C426.433380,432.289825 427.009125,431.707642 427.317291,430.119354 
	C425.426727,430.507355 423.454559,430.669800 421.658569,431.319336 
	C408.168457,436.198700 394.718231,441.188324 381.244720,446.113831 
	C373.555725,448.924652 365.743195,451.429840 358.183655,454.550720 
	C353.396118,456.527161 348.920685,457.297485 343.726074,456.141144 
	C334.562012,454.101196 325.238434,452.777924 315.981354,451.155975 
	C309.966766,450.102112 303.934692,449.136261 297.947937,447.942841 
	C296.282074,447.610748 294.749817,446.608215 293.076935,445.571899 
	C298.195496,446.082031 303.394989,446.923737 308.590973,447.786804 
	C322.249359,450.055481 335.906219,452.333435 349.833435,454.352417 
	C352.632019,453.413544 355.220245,452.896790 357.680603,452.020844 
	C385.105804,442.256958 412.498566,432.401947 439.927155,422.647705 
	C454.022888,417.634979 468.159637,412.736176 482.315063,407.894623 
	C484.146423,407.268250 486.201447,407.295837 488.575012,407.008911 
	C488.997131,406.997284 488.983185,406.983246 488.974274,407.311005 
	C488.950470,408.074921 488.935577,408.511108 488.556213,408.982178 
	C481.874237,411.898987 475.637146,414.975647 469.223511,417.624969 
	C452.475006,424.543518 435.626373,431.219391 418.862396,438.100952 
	C407.856812,442.618744 396.928955,447.325989 385.704010,452.157837 
	C385.272156,453.237610 385.102570,454.108002 384.932953,454.978394 
	C384.932953,454.978394 384.443634,454.989319 384.199524,454.971680 
z"/>
<path fill="#C3BDA1" opacity="1.000000" stroke="none" 
	d="
M290.698059,444.823730 
	C288.547668,445.333313 286.055511,446.063721 283.754395,445.672028 
	C269.467896,443.240082 255.220718,440.575714 240.967484,437.950409 
	C227.672104,435.501556 214.374634,433.060913 201.102997,430.488159 
	C198.053772,429.897034 195.106415,428.780426 192.043823,427.539001 
	C197.036377,427.875214 202.129807,428.399292 207.152420,429.312714 
	C226.159683,432.769348 245.139267,436.377716 264.138916,439.876526 
	C272.895935,441.489136 281.675354,442.979858 290.698059,444.823730 
z"/>
<path fill="#C3BDA1" opacity="1.000000" stroke="none" 
	d="
M189.719910,426.781982 
	C188.098831,427.254761 186.151688,427.876404 184.367447,427.564911 
	C171.010330,425.233032 157.689484,422.693848 144.338440,420.325684 
	C143.663116,420.205902 142.814285,421.064209 141.961121,421.850098 
	C141.194733,421.058563 140.513504,419.884033 140.107697,418.343445 
	C140.580338,417.962738 140.777542,417.948090 140.974747,417.933441 
	C157.139587,420.788513 173.304428,423.643616 189.719910,426.781982 
z"/>
<path fill="#E1E1E1" opacity="1.000000" stroke="none" 
	d="
M329.920532,385.362427 
	C332.184662,387.470093 334.448425,389.966705 336.826965,392.782166 
	C331.723694,393.400208 330.821808,389.575897 329.920532,385.362427 
z"/>
<path fill="#E1E1E1" opacity="1.000000" stroke="none" 
	d="
M341.698914,363.059570 
	C338.922180,365.028595 335.770996,366.976166 332.245514,368.931946 
	C334.142670,367.188324 336.414124,365.436493 338.886963,363.395264 
	C339.833710,363.083282 340.579071,363.060699 341.698914,363.059570 
z"/>
<path fill="#E1E1E1" opacity="1.000000" stroke="none" 
	d="
M328.556702,372.973053 
	C329.237030,375.679993 329.542755,378.510864 329.513428,381.702637 
	C328.502441,381.982056 327.826477,381.900574 327.150513,381.819092 
	C327.494354,378.911713 327.838226,376.004333 328.556702,372.973053 
z"/>
<path fill="#E1E1E1" opacity="1.000000" stroke="none" 
	d="
M353.752899,396.691406 
	C352.796722,397.438599 351.589172,397.907257 350.122925,398.594849 
	C348.706207,398.376678 347.548126,397.939575 346.278137,397.192688 
	C348.611298,396.726257 351.056396,396.569580 353.752899,396.691406 
z"/>
<path fill="#E1E1E1" opacity="1.000000" stroke="none" 
	d="
M336.972229,393.427734 
	C339.237396,394.089325 341.572662,395.092712 344.009949,396.413269 
	C341.755432,395.743469 339.398895,394.756531 336.972229,393.427734 
z"/>
<path fill="#F9EAA0" opacity="1.000000" stroke="none" 
	d="
M327.133240,382.158569 
	C327.826477,381.900574 328.502441,381.982056 329.513123,382.116394 
	C329.830048,382.612000 329.812256,383.054779 329.669617,383.811707 
	C328.735138,383.583282 327.925537,383.040680 327.133240,382.158569 
z"/>
<path fill="#F9EAA0" opacity="1.000000" stroke="none" 
	d="
M140.941467,417.624329 
	C140.777542,417.948090 140.580338,417.962738 140.084717,417.988464 
	C139.534271,417.514404 139.282227,417.029266 139.050568,416.257782 
	C139.683365,416.419403 140.295776,416.867310 140.941467,417.624329 
z"/>
<path fill="#E1E1E1" opacity="1.000000" stroke="none" 
	d="
M366.701538,349.088867 
	C363.515442,351.482788 360.047760,354.035492 356.371979,356.241486 
	C352.903717,358.322937 349.216492,360.039551 345.252319,361.929657 
	C346.046387,360.672699 346.986389,358.982941 348.420807,358.206238 
	C354.308350,355.018402 360.346405,352.108490 366.701538,349.088867 
z"/>
<path fill="#F3F2F1" opacity="1.000000" stroke="none" 
	d="
M485.222839,285.273010 
	C485.550842,284.828064 486.109528,284.660736 486.832886,284.244873 
	C488.062439,283.996216 489.127350,283.996124 490.591248,283.990967 
	C494.726715,287.458008 498.356720,290.993408 498.232208,296.821411 
	C495.498749,291.357422 492.423004,286.331085 485.222839,285.273010 
z"/>
<path fill="#C3BDA1" opacity="1.000000" stroke="none" 
	d="
M492.812225,405.004333 
	C493.878357,405.001770 494.552094,405.004700 495.589172,405.256165 
	C495.952515,405.504669 495.950867,405.961792 495.655151,405.984131 
	C494.890686,406.325989 494.421875,406.645477 493.583923,406.960876 
	C492.476837,406.977386 491.738861,406.997955 490.665100,406.995728 
	C489.880585,406.976379 489.431885,406.979797 488.983185,406.983246 
	C488.983185,406.983246 488.997131,406.997284 489.003906,407.005127 
	C490.147034,406.345245 491.283417,405.677521 492.812225,405.004333 
z"/>
<path fill="#DCC75F" opacity="1.000000" stroke="none" 
	d="
M492.606232,398.256317 
	C492.858948,398.785522 492.900574,399.496460 492.858856,400.554443 
	C492.648712,400.080353 492.521942,399.259186 492.606232,398.256317 
z"/>
<path fill="#DCC75F" opacity="1.000000" stroke="none" 
	d="
M492.611450,365.220306 
	C492.848572,365.490326 492.898865,365.905243 492.886047,366.628906 
	C492.690186,366.413483 492.557404,365.889343 492.611450,365.220306 
z"/>
<path fill="#F7E47F" opacity="1.000000" stroke="none" 
	d="
M384.959351,455.411011 
	C385.102570,454.108002 385.272156,453.237610 386.010498,452.324707 
	C397.712463,459.201752 408.845642,466.121338 420.137695,473.338226 
	C429.192505,479.102051 438.088409,484.568604 447.151428,490.337677 
	C449.215820,491.431641 451.113159,492.223053 453.010468,493.014465 
	C452.867432,493.842804 452.486603,494.715271 452.630402,495.490387 
	C452.937500,497.145691 453.516357,498.750519 453.971130,500.774048 
	C449.041260,498.962036 443.986725,497.011536 439.233032,494.493103 
	C425.337189,487.131317 411.561310,479.543091 397.215088,471.695312 
	C393.505310,469.849518 390.318939,468.352020 387.132568,466.854523 
	C386.416931,463.184235 385.701324,459.513947 384.959351,455.411011 
z"/>
<path fill="#C3BDA1" opacity="1.000000" stroke="none" 
	d="
M387.089478,467.279602 
	C390.318939,468.352020 393.505310,469.849518 396.857697,471.643738 
	C394.012604,471.950439 391.001556,471.960480 387.547729,471.939728 
	C387.085480,470.507507 387.065948,469.106079 387.089478,467.279602 
z"/>
<path fill="#E5D05B" opacity="1.000000" stroke="none" 
	d="
M419.978821,473.040924 
	C408.845642,466.121338 397.712463,459.201752 386.272766,452.115295 
	C396.928955,447.325989 407.856812,442.618744 418.862396,438.100952 
	C435.626373,431.219391 452.475006,424.543518 469.223511,417.624969 
	C475.637146,414.975647 481.874237,411.898987 488.886169,408.963837 
	C490.054016,408.279907 490.527435,407.649200 491.000854,407.018524 
	C491.738861,406.997955 492.476837,406.977386 493.875366,407.173492 
	C495.002350,408.075623 495.822571,408.732239 495.881012,409.450836 
	C496.525238,417.370270 502.285278,416.438873 507.422150,415.928528 
	C513.825134,415.292389 520.172791,413.783051 526.431946,416.768433 
	C526.900879,416.992096 528.049683,415.790283 528.213501,415.684235 
	C527.001526,413.386169 525.957031,411.726044 525.377258,409.916992 
	C525.301331,409.680115 527.609558,408.679230 528.813477,408.032196 
	C529.645203,409.629852 530.326843,411.334595 531.362854,412.786499 
	C532.023376,413.712219 533.140564,414.745239 534.171997,414.891571 
	C537.212158,415.323029 540.311523,415.336823 543.951111,415.546509 
	C543.619568,412.298431 543.156982,409.259186 543.039246,406.206604 
	C542.913513,402.948029 542.085083,401.386597 538.527283,403.122559 
	C537.542969,403.602814 535.669983,403.666901 535.021790,403.055511 
	C534.301453,402.376190 534.197876,400.651978 534.399292,399.481384 
	C534.675110,397.878845 535.491577,396.369354 536.076294,394.819977 
	C537.482666,395.160187 538.889038,395.500427 540.708618,396.283081 
	C543.745117,398.883698 546.180786,401.806396 550.043579,398.915649 
	C550.483398,398.943512 550.923218,398.971405 551.726562,399.423615 
	C554.407959,403.114655 564.914124,406.531006 568.743774,405.250488 
	C568.875977,405.206299 568.956726,405.008209 569.061462,404.881805 
	C569.496948,404.905396 569.932434,404.928986 570.682312,405.047363 
	C570.886108,408.210693 571.136658,410.083374 575.433350,409.340942 
	C577.906250,408.913574 580.802612,411.116608 583.546143,412.020752 
	C585.868347,412.786041 588.266296,413.320221 590.593018,414.073212 
	C595.472778,415.652435 600.366699,417.207581 605.143555,419.059540 
	C605.744263,419.292389 605.674683,421.254120 605.953430,422.596741 
	C594.720886,421.657349 584.353455,426.689270 581.036377,434.650269 
	C579.263184,435.693085 577.526428,436.373535 575.251831,436.842957 
	C574.142517,437.413605 573.570984,438.195251 572.999512,438.976929 
	C572.223206,439.317474 571.446899,439.658081 570.125732,439.749451 
	C564.340271,439.646393 560.335999,442.182190 557.000000,446.009491 
	C556.593262,446.037781 556.186462,446.066040 555.044556,446.060486 
	C549.791077,446.626617 544.775696,446.298553 543.026611,452.069336 
	C541.251709,453.029449 539.476746,453.989563 537.115967,454.706848 
	C532.823364,453.218811 530.486694,454.757599 529.058105,458.141418 
	C528.580200,458.438171 528.102295,458.734924 527.158203,458.809601 
	C526.143738,459.096771 525.595459,459.605988 525.047241,460.115234 
	C523.921997,460.733704 522.796753,461.352173 521.086914,461.712036 
	C517.986938,461.810425 515.277527,461.688782 512.992798,462.614929 
	C506.336273,465.313232 499.964722,468.737854 493.247894,471.254150 
	C489.881134,472.515381 486.313690,472.762115 484.045593,476.218750 
	C483.482910,477.076263 481.226654,477.154022 479.789825,477.045929 
	C474.956665,476.682343 470.389923,480.276520 470.000000,484.994019 
	C469.225067,485.332306 468.450165,485.670624 467.136536,485.761292 
	C463.808624,485.170105 461.115906,484.982758 460.998840,488.968994 
	C460.219299,489.308716 459.439728,489.648407 458.134430,489.746033 
	C456.413300,490.355804 455.217926,491.207611 454.022522,492.059448 
	C453.909973,492.371185 453.715393,492.618408 453.224609,492.907776 
	C451.113159,492.223053 449.215820,491.431641 447.152405,489.958130 
	C445.981049,487.893402 445.250580,486.107727 443.920837,485.201050 
	C439.293060,482.045837 434.591034,478.943726 429.651184,476.322845 
	C426.682343,474.747742 423.219604,474.103516 419.978821,473.040924 
M464.497986,469.001892 
	C469.627350,464.330658 473.126617,457.911163 480.379272,455.407318 
	C481.874329,454.891144 483.480591,449.469910 482.535187,448.254578 
	C480.829803,446.062256 477.350403,444.917664 474.399841,444.118011 
	C471.329346,443.285767 469.949432,445.199341 469.855103,448.360596 
	C469.820312,449.526611 469.001312,450.964020 468.087830,451.756287 
	C464.719940,454.677521 460.963654,457.169403 457.728455,460.220459 
	C453.915833,463.816132 450.054871,467.514740 447.048431,471.759155 
	C444.896545,474.797211 444.839386,479.049133 448.018677,481.758270 
	C451.520844,484.742584 454.596497,482.546783 456.905762,479.537354 
	C459.393768,476.295044 461.635681,472.863831 464.497986,469.001892 
z"/>
<path fill="#E5D05E" opacity="1.000000" stroke="none" 
	d="
M535.830139,394.555786 
	C535.491577,396.369354 534.675110,397.878845 534.399292,399.481384 
	C534.197876,400.651978 534.301453,402.376190 535.021790,403.055511 
	C535.669983,403.666901 537.542969,403.602814 538.527283,403.122559 
	C542.085083,401.386597 542.913513,402.948029 543.039246,406.206604 
	C543.156982,409.259186 543.619568,412.298431 543.951111,415.546509 
	C540.311523,415.336823 537.212158,415.323029 534.171997,414.891571 
	C533.140564,414.745239 532.023376,413.712219 531.362854,412.786499 
	C530.326843,411.334595 529.645203,409.629852 528.813477,408.032196 
	C527.609558,408.679230 525.301331,409.680115 525.377258,409.916992 
	C525.957031,411.726044 527.001526,413.386169 528.213501,415.684235 
	C528.049683,415.790283 526.900879,416.992096 526.431946,416.768433 
	C520.172791,413.783051 513.825134,415.292389 507.422150,415.928528 
	C502.285278,416.438873 496.525238,417.370270 495.881012,409.450836 
	C495.822571,408.732239 495.002350,408.075623 494.244476,407.177582 
	C494.421875,406.645477 494.890686,406.325989 495.883789,405.897400 
	C496.693268,405.604462 496.889526,405.351562 496.996826,405.029663 
	C506.543243,400.992157 515.964294,396.601471 525.715149,393.139740 
	C528.515503,392.145569 532.268005,393.833435 535.830139,394.555786 
z"/>
<path fill="#E5D05E" opacity="1.000000" stroke="none" 
	d="
M568.815491,404.626343 
	C568.956726,405.008209 568.875977,405.206299 568.743774,405.250488 
	C564.914124,406.531006 554.407959,403.114655 552.045898,399.512390 
	C557.524292,400.908203 563.046936,402.639526 568.815491,404.626343 
z"/>
<path fill="#E5D05E" opacity="1.000000" stroke="none" 
	d="
M549.796631,398.653625 
	C546.180786,401.806396 543.745117,398.883698 541.061279,396.370331 
	C543.850464,396.807312 546.700073,397.599457 549.796631,398.653625 
z"/>
<path fill="#DCC75F" opacity="1.000000" stroke="none" 
	d="
M496.722900,405.006073 
	C496.889526,405.351562 496.693268,405.604462 496.179504,405.875061 
	C495.950867,405.961792 495.952515,405.504669 495.927917,405.277863 
	C496.085175,405.028168 496.267059,405.005310 496.722900,405.006073 
z"/>
<path fill="#E5D05E" opacity="1.000000" stroke="none" 
	d="
M470.338684,484.873718 
	C470.389923,480.276520 474.956665,476.682343 479.789825,477.045929 
	C481.226654,477.154022 483.482910,477.076263 484.045593,476.218750 
	C486.313690,472.762115 489.881134,472.515381 493.247894,471.254150 
	C499.964722,468.737854 506.336273,465.313232 512.992798,462.614929 
	C515.277527,461.688782 517.986938,461.810425 520.758423,461.739563 
	C511.087250,466.621674 501.186340,471.275696 491.223602,475.793304 
	C484.419586,478.878632 477.529175,481.773468 470.338684,484.873718 
z"/>
<path fill="#E5D05E" opacity="1.000000" stroke="none" 
	d="
M543.391357,452.015167 
	C544.775696,446.298553 549.791077,446.626617 554.738708,446.055420 
	C551.364014,448.043121 547.560059,450.002045 543.391357,452.015167 
z"/>
<path fill="#E5D05E" opacity="1.000000" stroke="none" 
	d="
M557.366577,445.974121 
	C560.335999,442.182190 564.340271,439.646393 569.807861,439.782898 
	C565.934326,442.023285 561.833679,443.981018 557.366577,445.974121 
z"/>
<path fill="#E5D05E" opacity="1.000000" stroke="none" 
	d="
M529.427490,458.102203 
	C530.486694,454.757599 532.823364,453.218811 536.771179,454.743591 
	C534.607117,456.036407 532.202026,457.049683 529.427490,458.102203 
z"/>
<path fill="#E5D05E" opacity="1.000000" stroke="none" 
	d="
M461.345520,488.945129 
	C461.115906,484.982758 463.808624,485.170105 466.819672,485.796082 
	C465.258453,487.026093 463.475342,487.973663 461.345520,488.945129 
z"/>
<path fill="#E5D05E" opacity="1.000000" stroke="none" 
	d="
M454.351624,492.018921 
	C455.217926,491.207611 456.413300,490.355804 457.814880,489.772583 
	C456.907623,490.686951 455.794189,491.332703 454.351624,492.018921 
z"/>
<path fill="#E5D05E" opacity="1.000000" stroke="none" 
	d="
M573.267822,438.878052 
	C573.570984,438.195251 574.142517,437.413605 574.902039,436.894501 
	C574.572144,437.697754 574.054138,438.238464 573.267822,438.878052 
z"/>
<path fill="#E5D05E" opacity="1.000000" stroke="none" 
	d="
M525.338989,460.072327 
	C525.595459,459.605988 526.143738,459.096771 526.865601,458.832092 
	C526.569702,459.394196 526.100220,459.711792 525.338989,460.072327 
z"/>
<path fill="#E1E1E1" opacity="1.000000" stroke="none" 
	d="
M384.935852,389.136169 
	C380.147186,391.113647 374.942047,393.028412 369.345398,394.869690 
	C370.555023,393.925720 372.074097,392.814301 373.774414,392.234802 
	C377.305176,391.031555 380.932068,390.110474 384.935852,389.136169 
z"/>
<path fill="#E1E1E1" opacity="1.000000" stroke="none" 
	d="
M366.774170,394.721405 
	C363.796417,395.848785 360.583588,396.697754 357.184387,397.235107 
	C360.178345,396.096649 363.358704,395.269806 366.774170,394.721405 
z"/>
<path fill="#E1E1E1" opacity="1.000000" stroke="none" 
	d="
M404.986755,380.161163 
	C402.812622,381.766449 400.248230,383.327057 397.324005,384.846985 
	C399.508270,383.243042 402.052368,381.679749 404.986755,380.161163 
z"/>
<path fill="#E1E1E1" opacity="1.000000" stroke="none" 
	d="
M424.448120,368.933533 
	C423.439423,369.943268 422.080261,370.977905 420.383698,372.040131 
	C421.396729,371.031281 422.747192,369.994843 424.448120,368.933533 
z"/>
<path fill="#F3F2F1" opacity="1.000000" stroke="none" 
	d="
M488.907501,308.090942 
	C488.111389,309.109528 486.918579,310.088745 485.396118,311.117432 
	C486.214569,310.128418 487.362671,309.089996 488.907501,308.090942 
z"/>
<path fill="#E1E1E1" opacity="1.000000" stroke="none" 
	d="
M391.988159,386.153809 
	C391.109100,387.082245 389.861481,387.964020 388.268372,388.780029 
	C389.155090,387.845215 390.387360,386.976166 391.988159,386.153809 
z"/>
<path fill="#E1E1E1" opacity="1.000000" stroke="none" 
	d="
M432.507599,362.944275 
	C432.098969,363.599091 431.354401,364.271667 430.286438,364.934509 
	C430.699249,364.270538 431.435455,363.616272 432.507599,362.944275 
z"/>
<path fill="#E1E1E1" opacity="1.000000" stroke="none" 
	d="
M419.695251,372.028503 
	C419.258850,372.699097 418.460510,373.348633 417.340454,374.017914 
	C417.790253,373.360901 418.561798,372.684174 419.695251,372.028503 
z"/>
<path fill="#DCC75F" opacity="1.000000" stroke="none" 
	d="
M490.665070,406.995728 
	C490.527435,407.649200 490.054016,408.279907 489.250610,408.928955 
	C488.935577,408.511108 488.950470,408.074921 488.974274,407.311005 
	C489.431885,406.979797 489.880585,406.976379 490.665070,406.995728 
z"/>
<path fill="#E5D05E" opacity="1.000000" stroke="none" 
	d="
M420.137695,473.338226 
	C423.219604,474.103516 426.682343,474.747742 429.651184,476.322845 
	C434.591034,478.943726 439.293060,482.045837 443.920837,485.201050 
	C445.250580,486.107727 445.981049,487.893402 446.985291,489.655579 
	C438.088409,484.568604 429.192505,479.102051 420.137695,473.338226 
z"/>
<path fill="#E5D05E" opacity="1.000000" stroke="none" 
	d="
M464.241486,469.258453 
	C461.635681,472.863831 459.393768,476.295044 456.905762,479.537354 
	C454.596497,482.546783 451.520844,484.742584 448.018677,481.758270 
	C444.839386,479.049133 444.896545,474.797211 447.048431,471.759155 
	C450.054871,467.514740 453.915833,463.816132 457.728455,460.220459 
	C460.963654,457.169403 464.719940,454.677521 468.087830,451.756287 
	C469.001312,450.964020 469.820312,449.526611 469.855103,448.360596 
	C469.949432,445.199341 471.329346,443.285767 474.399841,444.118011 
	C477.350403,444.917664 480.829803,446.062256 482.535187,448.254578 
	C483.480591,449.469910 481.874329,454.891144 480.379272,455.407318 
	C473.126617,457.911163 469.627350,464.330658 464.241486,469.258453 
z"/>
</svg>